<svg height="60" viewBox="0 0 60 60" width="60" xmlns="http://www.w3.org/2000/svg"><g fill="none" fill-rule="evenodd" transform=""><circle cx="30" cy="30" fill="#091432" fill-rule="nonzero" r="30"/><path d="m30.3254764 13c.9849939 0 1.8199177.3462817 2.5047963 1.0388556s1.0273128 1.5236501 1.0273128 2.4932535c0 .9849939-.3424342 1.8237653-1.0273128 2.5163391-.6848786.6925739-1.5198024 1.0388556-2.5047963 1.0388556-.9696034 0-1.8006796-.3462817-2.4932535-1.0388556-.6925738-.6925738-1.0388556-1.5313452-1.0388556-2.5163391 0-.9696034.3424342-1.8006796 1.0273128-2.4932535s1.5198023-1.0388556 2.5047963-1.0388556zm-6.3254764 33.4280651v-1.7083404c1.7237394-.1231242 2.7087186-.2577894 2.9549671-.4039994s.4001515-.4193879.4617136-.8195416c.1539053-.8464792.2308568-3.0242066.2308568-6.5332476 0-4.817236-.0692564-7.5567093-.2077711-8.2185021-.0615622-.3078107-.1615991-.5078846-.3001139-.6002277-.3078106-.2000769-1.354351-.307809-3.1396525-.3231996v-1.7545117c2.3239701-.2462484 4.0784643-.5078835 5.2635351-.7849131 1.1850709-.2770295 2.477856-.7002628 3.8783943-1.2697124l.5540563.3001138c-.1846863 2.4009228-.2770281 4.6556017-.2770281 6.7641044v7.8491313c0 2.6779523.0615612 4.2631531.1846854 4.7556501.0615621.2770295.1846845.4617131.3693709.5540563.4155443.2000769 1.4236089.3308945 3.0242241.3924566v1.8006831c-2.1854553-.0615622-4.5632566-.0923428-7.1334752-.0923428-2.2162364 0-4.1708044.0307806-5.8637628.0923428z" fill="#fff" fill-rule="evenodd"/></g></svg>