<svg height="36" viewBox="0 0 36 36" width="36" xmlns="http://www.w3.org/2000/svg"><g fill="none" fill-rule="evenodd"><path d="m0 0h36v36h-36z" fill-rule="nonzero"/><path d="m7.4322 27.414c-.95480477-2.7280136-1.4322-5.4332533-1.4322-8.1158 0-3.0917488.81839182-5.5810239 2.4552-7.4679 1.6368082-1.8868761 4.0237843-2.8303 7.161-2.8303v4.2966c-2.4097454 0-3.6146 1.5458512-3.6146 4.6376v1.023h4.3648v8.4568zm12.8898 0c-.9093379-2.7734805-1.364-5.4787201-1.364-8.1158 0-3.0917488.8070253-5.5810239 2.4211-7.4679s3.9896843-2.8303 7.1269-2.8303v4.2966c-2.3642785 0-3.5464 1.5458512-3.5464 4.6376v1.023h4.2966v8.4568z" fill="#50edd8"/></g></svg>